<svg xmlns="http://www.w3.org/2000/svg" viewBox="0 0 160 160" fill="none">
  <!-- Soft ground shadow -->
  <ellipse cx="82" cy="142" rx="46" ry="8" fill="#e91e63" opacity="0.12"/>

  <!-- Shield (back) -->
  <path
    d="M98 28c18 6 34 10 42 12v48c0 28-18 46-42 56-24-10-42-28-42-56V40c12-3 28-8 42-12z"
    fill="#e91e63"
  />
  <path
    d="M98 36c14 4.5 27 8 34 9.5V86c0 22-14 36.5-34 45-20-8.5-34-23-34-45V45.5c10-2.2 22-6 34-9.5z"
    fill="#ff4f8b"
    opacity="0.55"
  />
  <circle cx="98" cy="82" r="18" fill="#fff"/>
  <path
    d="M90 82.5l5.2 5.2 11-12"
    stroke="#e91e63"
    stroke-width="4.5"
    stroke-linecap="round"
    stroke-linejoin="round"
    fill="none"
  />

  <!-- Padlock body -->
  <rect x="28" y="68" width="72" height="62" rx="16" fill="#ff6fa8"/>
  <rect x="32" y="72" width="64" height="54" rx="14" fill="#ff4f8b"/>
  <rect x="36" y="76" width="28" height="46" rx="10" fill="#ff8fbc" opacity="0.55"/>

  <!-- Shackle -->
  <path
    d="M46 72V54c0-14 10-24 22-24s22 10 22 24v18"
    stroke="#ff9fc6"
    stroke-width="12"
    stroke-linecap="round"
    fill="none"
  />
  <path
    d="M46 72V54c0-14 10-24 22-24s22 10 22 24v18"
    stroke="#ff70a8"
    stroke-width="7"
    stroke-linecap="round"
    fill="none"
  />

  <!-- Keyhole -->
  <circle cx="64" cy="98" r="8" fill="#6a1040"/>
  <path d="M61 104h6v12c0 2.5-1.3 4-3 4s-3-1.5-3-4v-12z" fill="#6a1040"/>
</svg>
