<svg width="1094" height="1087" viewBox="0 0 1094 1087" fill="none" xmlns="http://www.w3.org/2000/svg">
<path d="M494.98 13.57C494.98 13.57 497.34 4.43 502.07 0C595.39 0.29 595.391 0.289993 595.391 0.289993C595.391 0.289993 600.111 7.96 600.711 12.97C549.311 12.68 494.98 13.57 494.98 13.57Z" fill="url(#paint0_linear_2302_3)"/>
<path d="M1083.24 436.72C1083.24 436.72 1094.31 493.64 1093.43 533.29C1089.89 533.51 1089.89 533.51 1089.89 533.51C1089.89 533.51 1086.35 466.18 1081.92 437.61L1083.24 436.72Z" fill="url(#paint1_linear_2302_3)"/>
<path d="M1090.11 554.99L1093.21 554.77C1093.21 554.77 1091.22 616.79 1083.69 650.67L1080.37 650.89C1080.36 650.89 1089 583.56 1090.11 554.99Z" fill="url(#paint2_linear_2302_3)"/>
<path d="M119.041 392.89C119.041 392.89 108.701 504.09 109.001 530.64C43.1509 533 41.6709 533.29 41.6709 533.29L51.7109 411.18C51.7109 411.17 104.281 395.54 119.041 392.89Z" fill="url(#paint3_linear_2302_3)"/>
<path d="M20.7007 413.24C20.7007 413.24 31.9207 366.34 36.9407 353.66C27.1907 381.98 15.6807 424.45 15.6807 424.45C15.6807 424.45 21.8807 384.63 45.5107 324.75C71.2007 295.25 78.2907 291.71 78.2907 291.71L48.7607 393.18C48.7607 393.18 24.5407 407.63 20.7007 413.24Z" fill="url(#paint4_linear_2302_3)"/>
<path d="M54.3701 310.3C54.3701 310.3 86.5601 238.62 124.65 201.46C86.2601 274.02 86.2601 274.02 86.2601 274.02C86.2601 274.02 70.6101 286.41 54.3701 310.3Z" fill="url(#paint5_linear_2302_3)"/>
<path d="M271.721 72.27C271.721 72.27 323.701 43.95 373.311 27.73C355.591 40.41 355.591 40.41 355.591 40.41L271.721 72.27Z" fill="url(#paint6_linear_2302_3)"/>
<path d="M373.311 33.92C373.311 33.92 380.691 25.66 387.191 22.42C393.691 19.18 439.171 9.74 483.761 3.25C479.331 6.79 474.901 10.62 473.131 16.52C459.541 17.7 383.641 30.09 373.311 33.92Z" fill="url(#paint7_linear_2302_3)"/>
<path d="M365.631 39.82C365.631 39.82 343.191 73.15 338.761 86.72C351.461 83.48 419.381 67.84 457.481 66.66C458.371 61.94 465.751 25.96 469.001 20.65C443.301 24.19 365.631 39.82 365.631 39.82Z" fill="url(#paint8_linear_2302_3)"/>
<path d="M491.14 18.58C491.14 18.58 571.76 17.4 603.36 18.87C612.22 63.11 612.22 63.11 612.22 63.11L483.17 63.99L491.14 18.58Z" fill="url(#paint9_linear_2302_3)"/>
<path d="M624.91 21.53C624.91 21.53 634.36 51.62 636.72 65.18C692.83 73.73 756.62 86.71 756.62 86.71C756.62 86.71 735.95 48.66 729.16 39.52C679.55 29.79 639.97 21.24 624.91 21.53Z" fill="url(#paint10_linear_2302_3)"/>
<path d="M612.511 2.35999C612.511 2.35999 689.591 16.22 706.421 21.53C724.141 33.92 725.911 35.39 725.911 35.39C725.911 35.39 646.181 17.99 623.441 16.51C612.511 2.35999 612.511 2.35999 612.511 2.35999Z" fill="url(#paint11_linear_2302_3)"/>
<path d="M724.73 28.61C724.73 28.61 801.22 57.52 823.66 75.21C811.85 70.2 767.26 49.55 741.86 41.29L724.73 28.61Z" fill="url(#paint12_linear_2302_3)"/>
<path d="M481.24 1087C481.24 1087 473.05 1077.49 472.16 1074.39C472.16 1074.39 380.24 1060.23 373.16 1055.37C376.48 1059.57 384.45 1075.72 481.24 1087Z" fill="url(#paint13_linear_2302_3)"/>
<path d="M365.41 1050.06C365.41 1050.06 337.95 1007.81 337.28 1002.5C347.03 1006.04 424.1 1021.52 456.44 1024.18L469.73 1069.75C469.73 1069.74 380.02 1057.14 365.41 1050.06Z" fill="url(#paint14_linear_2302_3)"/>
<path d="M371.83 1061.56L353.67 1050.28L276.37 1017.76L277.48 1021.08C277.48 1021.08 350.57 1058.91 371.83 1061.56Z" fill="url(#paint15_linear_2302_3)"/>
<path d="M346.36 1043.86C346.36 1043.86 320.22 1006.25 316.9 998.07C316.9 998.07 235.84 972.63 223.65 961.35C228.97 972.85 265.51 1011.12 265.51 1011.12C265.51 1011.12 334.18 1041.21 346.36 1043.86Z" fill="url(#paint16_linear_2302_3)"/>
<path d="M128.2 892.11C128.2 892.11 91.8801 830.17 86.1201 815.79C76.3701 807.38 55.3301 782.16 55.3301 782.16C55.3301 782.16 101.62 873.08 128.2 892.11Z" fill="url(#paint17_linear_2302_3)"/>
<path d="M77.25 797.42C77.25 797.42 33.4 772.42 15.46 667.79C15.46 667.79 28.5299 721.77 34.2899 730.4C31.4099 721.33 19.23 683.94 18.34 674.21C35.84 688.59 39.82 691.47 48.24 696.33C53.56 717.34 77.25 797.42 77.25 797.42Z" fill="url(#paint18_linear_2302_3)"/>
<path d="M44.0302 673.32L14.3502 656.06C14.3502 656.06 5.2702 584.83 6.3802 555.85C34.2902 556.51 34.2902 556.51 34.2902 556.51C34.2902 556.51 41.8202 664.03 44.0302 673.32Z" fill="url(#paint19_linear_2302_3)"/>
<path d="M14.5708 436.61C14.5708 436.61 5.93083 489.48 4.38083 535.5H0.84082C0.84082 535.5 8.15082 450.11 11.2508 437.5L14.5708 436.61Z" fill="url(#paint20_linear_2302_3)"/>
<path d="M1050.68 415.23C1050.68 415.23 1058.65 485.66 1059.54 532.62C1088.33 533.51 1088.33 533.51 1088.33 533.51C1088.33 533.51 1085.45 445.36 1079.91 432.96C1069.29 424.53 1050.68 415.23 1050.68 415.23Z" fill="url(#paint21_linear_2302_3)"/>
<path d="M1060.21 556.54C1060.21 556.54 1053.12 658.42 1050.02 673.04C1070.84 663.29 1079.26 655.32 1079.26 655.32C1079.26 655.32 1085.02 631.84 1089.01 554.77L1060.21 556.54Z" fill="url(#paint22_linear_2302_3)"/>
<path d="M213.541 139.81L176.631 223.58C176.631 223.58 261.681 197.03 280.581 191.43C287.081 171.08 310.111 106.78 310.111 106.78L213.541 139.81Z" fill="url(#paint23_linear_2302_3)"/>
<path d="M151.89 251.45C151.89 251.45 129.52 335.96 125.53 365.16C90.0901 376.66 59.0801 387.95 59.0801 387.95C59.0801 387.95 82.1101 295.26 86.5401 285.3C149.02 253 151.89 251.45 151.89 251.45Z" fill="url(#paint24_linear_2302_3)"/>
<path d="M127.61 195.56C127.61 195.56 189.63 118.28 261.68 79.94C246.03 93.21 215.32 125.07 209.41 136.87C185.19 150.72 147.39 171.96 127.61 195.56Z" fill="url(#paint25_linear_2302_3)"/>
<path d="M222.99 126.83C222.99 126.83 256.66 84.65 266.7 78.75C276.74 72.85 345.55 47.19 345.55 47.19L317.5 91.73L222.99 126.83Z" fill="url(#paint26_linear_2302_3)"/>
<path d="M197.001 151.02C197.001 151.02 166.581 212.67 160.681 230.36C155.071 233.31 96.0107 266.35 96.0107 266.35C96.0107 266.35 120.521 213.55 132.041 196.15C136.761 191.13 162.751 166.65 197.001 151.02Z" fill="url(#paint27_linear_2302_3)"/>
<path d="M639.971 79.05C639.971 79.05 650.311 139.81 652.371 166.65C710.251 172.25 790.871 186.41 790.871 186.41C790.871 186.41 768.431 111.49 762.521 99.1C699.331 87.31 639.971 79.05 639.971 79.05Z" fill="url(#paint28_linear_2302_3)"/>
<path d="M749.83 47.49C749.83 47.49 766.37 69.32 777 93.21C777 93.21 821.59 107.07 869.73 127.43C869.73 127.43 852.01 98.52 832.23 80.83C832.22 80.82 767.85 51.03 749.83 47.49Z" fill="url(#paint29_linear_2302_3)"/>
<path d="M834.29 80.23C834.29 80.23 872.68 111.2 885.97 136.57C885.97 136.57 931.74 157.81 968.66 200.28C958.91 184.94 885.08 102.65 834.29 80.23Z" fill="url(#paint30_linear_2302_3)"/>
<path d="M896.601 150.72C896.601 150.72 929.971 217.68 933.811 229.77C942.371 233.9 984.311 256.02 999.371 266.93C987.261 238.61 965.411 199.97 960.091 192.6C960.091 192.61 916.091 156.92 896.601 150.72Z" fill="url(#paint31_linear_2302_3)"/>
<path d="M968.95 202.05C968.95 202.05 1001.14 255.44 1009.11 275.2C1013.24 279.33 1029.49 294.96 1040.71 311.48C1029.2 285.82 989.63 215.03 968.95 202.05Z" fill="url(#paint32_linear_2302_3)"/>
<path d="M1016.79 294.66C1016.79 294.66 1035.69 346.28 1045.14 392.29C1069.36 409.99 1074.67 414.41 1074.67 414.41L1062.86 368.4C1062.86 368.4 1076.74 415 1078.81 423.56C1077.33 409.7 1059.61 346.58 1048.1 326.22C1039.24 315.02 1016.79 294.66 1016.79 294.66Z" fill="url(#paint33_linear_2302_3)"/>
<path d="M942.971 250.42C942.971 250.42 963.351 325.63 969.841 365.75C991.101 371.94 1035.69 388.76 1035.69 388.76C1035.69 388.76 1020.92 318.85 1008.52 285.52C1008.53 285.52 960.681 257.79 942.971 250.42Z" fill="url(#paint34_linear_2302_3)"/>
<path d="M985.561 559.83C985.561 559.83 976.921 677.52 975.591 696.54C1011.03 688.58 1041.59 678.4 1041.59 678.4C1041.59 678.4 1052.22 597.88 1052.22 558.06L985.561 559.83Z" fill="url(#paint35_linear_2302_3)"/>
<path d="M259.09 1008.69C259.09 1008.69 216.12 971.53 207.71 953.61C199.96 950.07 149.46 917.55 131.08 896.98C152.34 923.08 209.26 982.81 259.09 1008.69Z" fill="url(#paint36_linear_2302_3)"/>
<path d="M197.74 939.89C197.74 939.89 141.26 906.04 135.06 898.96C103.83 840.12 94.5303 824.19 94.5303 824.19L160.09 859.59C160.09 859.59 187.33 923.3 197.74 939.89Z" fill="url(#paint37_linear_2302_3)"/>
<path d="M87.2205 805.17L152.78 839.02C152.78 839.02 127.53 743.67 125.09 724.43C113.13 722.22 57.9805 701.87 57.9805 701.87C57.9805 701.87 81.9105 794.99 87.2205 805.17Z" fill="url(#paint38_linear_2302_3)"/>
<path d="M13.2504 653.41H11.0404C11.0404 653.41 1.07043 589.92 0.19043 555.63H4.40042C4.39042 555.63 13.0204 648.54 13.2504 653.41Z" fill="url(#paint39_linear_2302_3)"/>
<path d="M177.811 867.48C177.811 867.48 259.021 895.5 280.581 898.16C288.851 929.43 311.001 984.88 311.001 984.88C311.001 984.88 220.631 953.32 214.731 950.07C208.821 946.82 178.101 875.15 177.811 867.48Z" fill="url(#paint40_linear_2302_3)"/>
<path d="M304.79 905.23L331.96 990.77C331.96 990.77 419.08 1010.53 455.11 1010.53C448.61 970.42 441.82 922.63 441.82 922.63C441.82 922.63 317.79 910.54 304.79 905.23Z" fill="url(#paint41_linear_2302_3)"/>
<path d="M254.21 468.36C257.6 461.17 262.5 455.69 268.93 451.95C275.36 448.21 283.14 446.33 292.3 446.33C299.32 446.33 305.65 447.94 311.3 451.15C316.95 454.36 321.76 459 325.75 465.06C329.73 471.12 332.68 478.44 334.58 487H385.24C382.03 468.09 376.23 451.95 367.85 438.57C359.47 425.19 348.85 415 336.01 407.98C323.17 400.96 308.6 397.46 292.31 397.46C272.57 397.46 255.68 401.27 241.65 408.88C227.62 416.49 216.91 427.52 209.54 441.97C202.16 456.42 198.48 473.87 198.48 494.33V565.51C198.48 585.97 202.17 603.42 209.54 617.87C216.91 632.32 227.62 643.32 241.65 650.87C255.68 658.42 272.57 662.2 292.31 662.2C308.6 662.2 323.14 658.69 335.93 651.68C348.71 644.66 359.3 634.47 367.68 621.09C376.06 607.71 381.92 591.57 385.25 572.66H334.59C332.81 581.34 329.95 588.71 326.03 594.78C322.11 600.85 317.29 605.46 311.58 608.61C305.87 611.76 299.45 613.34 292.31 613.34C283.15 613.34 275.36 611.47 268.94 607.72C262.52 603.97 257.61 598.53 254.22 591.4C250.83 584.26 249.14 575.64 249.14 565.53V494.35C249.12 484.21 250.82 475.56 254.21 468.36Z" fill="#351251"/>
<path d="M586.27 537.04C578.12 531.63 568.34 528.15 556.93 526.6C567.63 524.82 576.79 521.43 584.4 516.43C592.01 511.44 597.81 505.04 601.79 497.25C605.77 489.46 607.77 480.51 607.77 470.4C607.77 455.66 604.68 443.02 598.49 432.49C592.3 421.97 583.27 413.94 571.38 408.41C559.49 402.88 545.16 400.12 528.39 400.12H471.49H444.02H422.61V659.5H444.02H471.49H531.43C548.2 659.5 562.56 656.73 574.51 651.21C586.46 645.69 595.56 637.63 601.8 627.04C608.04 616.46 611.17 603.73 611.17 588.87V588.33C611.17 576.91 609.06 566.87 604.84 558.18C600.6 549.5 594.42 542.45 586.27 537.04ZM526.78 447.22C536.89 447.22 544.71 449.54 550.24 454.18C555.77 458.82 558.53 465.3 558.53 473.62C558.53 482.9 555.76 490.09 550.24 495.2C544.71 500.31 536.89 502.87 526.78 502.87H471.48V447.21H526.78V447.22ZM561.92 581.55C561.92 591.3 558.86 598.88 552.73 604.29C546.6 609.7 537.95 612.41 526.77 612.41H471.47V549.98H526.77C534.14 549.98 540.48 551.2 545.77 553.64C551.06 556.08 555.07 559.62 557.81 564.25C560.54 568.89 561.91 574.48 561.91 581.02V581.55H561.92Z" fill="#351251"/>
<path d="M818 400.13L768.59 574.95L719.17 400.13H654.78V659.5H699.2V478.76L747 630.6H790.17L837.98 475.32V659.5H882.4V400.13H818Z" fill="#351251"/>
<path d="M181.841 702.32C184.561 700.79 187.511 700.02 190.701 700.02C193.621 700.02 196.301 700.6 198.731 701.77C201.171 702.94 203.261 704.66 205.001 706.92L208.151 704.5C206.231 701.84 203.761 699.77 200.761 698.29C197.751 696.81 194.381 696.07 190.651 696.07C184.471 696.07 179.331 698.07 175.221 702.06C171.121 706.06 169.061 710.98 169.061 716.83C169.061 722.39 170.751 727.14 174.141 731.07C178.181 735.73 183.701 738.06 190.691 738.06C194.371 738.06 197.701 737.37 200.681 735.98C203.661 734.59 206.151 732.63 208.141 730.1L204.991 727.71C201.221 732.1 196.541 734.29 190.941 734.29C185.851 734.29 181.631 732.66 178.291 729.4C174.951 726.14 173.271 722.07 173.271 717.19C173.271 713.96 174.021 711.06 175.511 708.48C177.021 705.91 179.131 703.85 181.841 702.32Z" fill="#261B62"/>
<path d="M229.55 706.74C224.98 706.74 221.19 708.4 218.2 711.71C215.48 714.72 214.12 718.27 214.12 722.37C214.12 726.5 215.56 730.11 218.44 733.2C221.32 736.29 225.02 737.83 229.56 737.83C234.08 737.83 237.78 736.29 240.66 733.2C243.54 730.11 244.98 726.5 244.98 722.37C244.98 718.26 243.62 714.7 240.9 711.69C237.88 708.38 234.11 706.74 229.55 706.74ZM239.55 728.43C238.51 730.28 237.11 731.71 235.35 732.71C233.59 733.72 231.65 734.22 229.54 734.22C227.43 734.22 225.49 733.72 223.73 732.71C221.97 731.7 220.57 730.28 219.53 728.43C218.49 726.58 217.97 724.59 217.97 722.45C217.97 719.13 219.11 716.31 221.38 713.97C223.65 711.63 226.37 710.46 229.54 710.46C232.69 710.46 235.4 711.63 237.68 713.97C239.96 716.31 241.1 719.13 241.1 722.45C241.1 724.59 240.58 726.58 239.55 728.43Z" fill="#261B62"/>
<path d="M291.581 708.29C290.021 707.26 288.211 706.74 286.171 706.74C283.981 706.74 281.941 707.34 280.041 708.55C278.141 709.76 276.561 711.52 275.291 713.84C274.691 712.1 273.981 710.76 273.171 709.83C272.351 708.9 271.301 708.15 270.011 707.59C268.721 707.03 267.361 706.75 265.931 706.75C263.811 706.75 261.781 707.33 259.861 708.49C258.461 709.36 257.101 710.74 255.781 712.62V707.51H251.971V737.08H255.781V724.55C255.781 720.85 256.151 718.11 256.881 716.31C257.611 714.52 258.751 713.09 260.281 712.03C261.811 710.97 263.461 710.44 265.211 710.44C266.731 710.44 268.051 710.83 269.151 711.6C270.251 712.37 271.031 713.39 271.471 714.67C271.911 715.95 272.141 718.37 272.141 721.94V737.08H275.951V725.5C275.951 721.26 276.301 718.23 277.011 716.42C277.711 714.61 278.831 713.16 280.361 712.07C281.891 710.98 283.571 710.44 285.411 710.44C286.931 710.44 288.231 710.8 289.321 711.53C290.411 712.26 291.191 713.21 291.641 714.4C292.091 715.59 292.321 717.77 292.321 720.94V737.09H296.211V720.94C296.211 717.24 295.831 714.47 295.071 712.62C294.301 710.76 293.141 709.32 291.581 708.29Z" fill="#261B62"/>
<path d="M319.811 706.74C317.401 706.74 315.221 707.26 313.271 708.29C311.311 709.32 309.591 710.87 308.081 712.94V707.5H304.271V747.89H308.081V731.99C309.671 733.93 311.461 735.39 313.431 736.37C315.401 737.35 317.571 737.84 319.921 737.84C324.101 737.84 327.671 736.32 330.631 733.29C333.591 730.25 335.071 726.56 335.071 722.21C335.071 717.95 333.581 714.31 330.591 711.28C327.601 708.25 324.011 706.74 319.811 706.74ZM329.611 728.3C328.541 730.2 327.111 731.68 325.311 732.74C323.511 733.8 321.591 734.33 319.551 734.33C317.471 734.33 315.501 733.81 313.621 732.76C311.751 731.71 310.311 730.29 309.311 728.5C308.311 726.71 307.801 724.69 307.801 722.45C307.801 719.03 308.931 716.17 311.181 713.87C313.431 711.57 316.201 710.42 319.491 710.42C321.611 710.42 323.561 710.94 325.351 711.98C327.141 713.02 328.561 714.48 329.621 716.37C330.681 718.25 331.211 720.24 331.211 722.34C331.211 724.41 330.681 726.4 329.611 728.3Z" fill="#261B62"/>
<path d="M367.91 712.93C366.42 710.86 364.7 709.31 362.73 708.28C360.76 707.25 358.57 706.73 356.14 706.73C351.94 706.73 348.34 708.24 345.35 711.27C342.36 714.3 340.87 717.94 340.87 722.2C340.87 726.55 342.35 730.24 345.31 733.28C348.27 736.32 351.85 737.83 356.03 737.83C358.39 737.83 360.56 737.34 362.54 736.36C364.52 735.38 366.31 733.92 367.91 731.98V737.06H371.66V707.5H367.91V712.93ZM366.65 728.49C365.65 730.28 364.21 731.7 362.35 732.75C360.49 733.8 358.51 734.32 356.43 734.32C354.37 734.32 352.43 733.79 350.63 732.73C348.83 731.67 347.39 730.19 346.33 728.29C345.27 726.39 344.73 724.4 344.73 722.32C344.73 720.22 345.26 718.23 346.32 716.35C347.38 714.47 348.8 713.01 350.6 711.96C352.39 710.92 354.35 710.4 356.46 710.4C359.75 710.4 362.53 711.55 364.78 713.85C367.03 716.15 368.16 719.01 368.16 722.43C368.15 724.68 367.65 726.7 366.65 728.49Z" fill="#261B62"/>
<path d="M401.001 708.42C399.291 707.3 397.331 706.73 395.111 706.73C392.941 706.73 390.921 707.23 389.081 708.24C387.231 709.25 385.551 710.76 384.021 712.79V707.49H380.211V737.06H384.021V726.21C384.021 722.31 384.201 719.63 384.561 718.16C385.141 715.91 386.341 714.03 388.161 712.51C389.981 710.99 392.041 710.23 394.351 710.23C396.361 710.23 397.991 710.72 399.241 711.71C400.491 712.7 401.341 714.17 401.781 716.13C402.061 717.27 402.201 719.55 402.201 722.95V737.06H406.011V721.84C406.011 717.82 405.601 714.85 404.791 712.95C403.981 711.05 402.721 709.54 401.001 708.42Z" fill="#261B62"/>
<path d="M387.3 699.68C387.87 699.45 388.47 699.34 389.11 699.34C389.62 699.34 390.091 699.4 390.521 699.53C390.851 699.62 391.601 699.96 392.781 700.54C394.161 701.21 395.5 701.55 396.8 701.55C397.8 701.55 398.741 701.38 399.641 701.05C400.541 700.72 401.64 700.08 402.94 699.13L401.04 696.49C399.3 697.49 397.93 697.99 396.94 697.99C396.05 697.99 394.84 697.63 393.3 696.9C391.69 696.16 390.301 695.79 389.141 695.79C386.711 695.79 384.671 696.68 383.021 698.45L384.81 701.22C385.9 700.42 386.73 699.91 387.3 699.68Z" fill="#261B62"/>
<path d="M411.461 702.01H415.211L423.221 693.63H417.381L411.461 702.01Z" fill="#261B62"/>
<path d="M417.411 707.5H413.601V737.07H417.411V707.5Z" fill="#261B62"/>
<path d="M451.03 712.93C449.54 710.86 447.82 709.31 445.85 708.28C443.88 707.25 441.69 706.73 439.26 706.73C435.06 706.73 431.46 708.24 428.47 711.27C425.48 714.3 423.99 717.94 423.99 722.2C423.99 726.55 425.47 730.24 428.43 733.28C431.39 736.32 434.97 737.83 439.15 737.83C441.51 737.83 443.68 737.34 445.66 736.36C447.64 735.38 449.43 733.92 451.03 731.98V737.06H454.78V707.5H451.03V712.93ZM449.77 728.49C448.77 730.28 447.33 731.7 445.47 732.75C443.61 733.8 441.63 734.32 439.55 734.32C437.49 734.32 435.55 733.79 433.75 732.73C431.95 731.67 430.51 730.19 429.45 728.29C428.39 726.39 427.85 724.4 427.85 722.32C427.85 720.22 428.38 718.23 429.44 716.35C430.5 714.47 431.92 713.01 433.72 711.96C435.51 710.92 437.47 710.4 439.58 710.4C442.87 710.4 445.65 711.55 447.9 713.85C450.15 716.15 451.28 719.01 451.28 722.43C451.28 724.68 450.77 726.7 449.77 728.49Z" fill="#261B62"/>
<path d="M499.89 717.76C498.77 716.81 497.17 715.98 495.09 715.27C496.77 714.36 498.04 713.18 498.9 711.72C499.77 710.26 500.2 708.64 500.2 706.87C500.2 704.97 499.71 703.24 498.72 701.68C497.73 700.12 496.39 698.97 494.68 698.21C492.98 697.46 490.54 697.08 487.37 697.08H479.49V737.07H490.47C494.42 737.07 497.57 735.96 499.92 733.74C502.27 731.52 503.44 728.81 503.44 725.6C503.44 724.02 503.13 722.56 502.5 721.21C501.87 719.86 501.01 718.71 499.89 717.76ZM483.41 701H488.04C490.84 701 492.88 701.52 494.16 702.56C495.44 703.6 496.08 705.04 496.08 706.87C496.08 708.23 495.7 709.47 494.94 710.58C494.18 711.69 493.14 712.51 491.83 713.03C490.52 713.55 488.48 713.8 485.7 713.8H483.41V701ZM498.07 729.62C497.24 730.83 496.15 731.73 494.79 732.3C493.43 732.87 491.29 733.16 488.36 733.16H483.4V717.83H485.66C489.04 717.83 491.41 717.99 492.77 718.32C494.8 718.81 496.4 719.72 497.56 721.04C498.72 722.36 499.3 723.91 499.3 725.69C499.31 727.1 498.9 728.41 498.07 729.62Z" fill="#261B62"/>
<path d="M516.84 708C515.55 708.84 514.33 710.12 513.17 711.82V707.5H509.28V737.07H513.17V727.07C513.17 721.94 513.41 718.53 513.88 716.85C514.5 714.66 515.39 713.04 516.57 712C517.75 710.96 518.97 710.44 520.24 710.44C520.78 710.44 521.45 710.61 522.25 710.96L524.23 707.75C523.03 707.08 521.91 706.74 520.86 706.74C519.47 706.74 518.13 707.16 516.84 708Z" fill="#261B62"/>
<path d="M528.791 695.32C527.941 695.32 527.211 695.63 526.601 696.24C525.991 696.86 525.681 697.6 525.681 698.47C525.681 699.32 525.991 700.06 526.601 700.67C527.211 701.29 527.941 701.59 528.791 701.59C529.661 701.59 530.401 701.28 531.011 700.67C531.621 700.05 531.931 699.32 531.931 698.47C531.931 697.6 531.621 696.86 531.011 696.24C530.391 695.63 529.651 695.32 528.791 695.32Z" fill="#261B62"/>
<path d="M530.71 707.5H526.9V737.07H530.71V707.5Z" fill="#261B62"/>
<path d="M541.851 696.08H538.041V737.07H541.851V696.08Z" fill="#261B62"/>
<path d="M553 696.08H549.19V737.07H553V696.08Z" fill="#261B62"/>
<path d="M586.62 712.93C585.13 710.86 583.41 709.31 581.44 708.28C579.47 707.25 577.28 706.73 574.85 706.73C570.65 706.73 567.05 708.24 564.06 711.27C561.07 714.3 559.58 717.94 559.58 722.2C559.58 726.55 561.06 730.24 564.02 733.28C566.98 736.32 570.56 737.83 574.74 737.83C577.1 737.83 579.27 737.34 581.25 736.36C583.23 735.38 585.02 733.92 586.62 731.98V737.06H590.37V707.5H586.62V712.93ZM585.36 728.49C584.36 730.28 582.92 731.7 581.06 732.75C579.2 733.8 577.22 734.32 575.14 734.32C573.08 734.32 571.14 733.79 569.34 732.73C567.54 731.67 566.1 730.19 565.04 728.29C563.98 726.39 563.44 724.4 563.44 722.32C563.44 720.22 563.97 718.23 565.03 716.35C566.09 714.47 567.51 713.01 569.31 711.96C571.1 710.92 573.06 710.4 575.17 710.4C578.46 710.4 581.24 711.55 583.49 713.85C585.74 716.15 586.87 719.01 586.87 722.43C586.86 724.68 586.36 726.7 585.36 728.49Z" fill="#261B62"/>
<path d="M619.711 708.42C618.001 707.3 616.041 706.73 613.821 706.73C611.651 706.73 609.631 707.23 607.791 708.24C605.941 709.25 604.261 710.76 602.731 712.79V707.49H598.921V737.06H602.731V726.21C602.731 722.31 602.911 719.63 603.271 718.16C603.851 715.91 605.051 714.03 606.871 712.51C608.691 710.99 610.751 710.23 613.061 710.23C615.071 710.23 616.701 710.72 617.951 711.71C619.201 712.7 620.051 714.17 620.491 716.13C620.771 717.27 620.911 719.55 620.911 722.95V737.06H624.721V721.84C624.721 717.82 624.311 714.85 623.501 712.95C622.691 711.05 621.431 709.54 619.711 708.42Z" fill="#261B62"/>
<path d="M640.011 696.52H636.201V707.5H631.011V710.79H636.201V737.07H640.011V710.79H646.041V707.5H640.011V696.52Z" fill="#261B62"/>
<path d="M677.571 712.47C674.561 708.65 670.531 706.73 665.491 706.73C660.591 706.73 656.681 708.6 653.761 712.33C651.461 715.27 650.301 718.61 650.301 722.36C650.301 726.35 651.661 729.92 654.381 733.08C657.101 736.24 660.871 737.82 665.701 737.82C667.881 737.82 669.831 737.49 671.551 736.83C673.271 736.17 674.821 735.2 676.201 733.93C677.581 732.66 678.791 730.99 679.851 728.93L676.641 727.24C675.481 729.17 674.401 730.57 673.401 731.44C672.401 732.31 671.191 733 669.771 733.52C668.351 734.04 666.881 734.31 665.371 734.31C662.251 734.31 659.631 733.21 657.501 731.02C655.381 728.82 654.281 726.01 654.211 722.57H680.821C680.801 718.54 679.711 715.17 677.571 712.47ZM654.601 719.29C655.381 716.57 656.531 714.53 658.061 713.17C660.151 711.3 662.641 710.37 665.541 710.37C667.301 710.37 668.981 710.74 670.571 711.48C672.171 712.22 673.451 713.2 674.421 714.42C675.391 715.63 676.131 717.26 676.641 719.29H654.601Z" fill="#261B62"/>
<path d="M740.871 697.09L724.771 729.9L708.521 697.09H707.871L702.141 737.07H706.001L709.931 708.26L724.241 737.07H725.261L739.401 708.48L743.351 737.07H747.271L741.511 697.09H740.871Z" fill="#261B62"/>
<path d="M776.001 721.31C776.001 725.01 775.811 727.43 775.431 728.57C774.871 730.24 773.851 731.58 772.371 732.61C770.891 733.63 769.091 734.15 766.971 734.15C764.851 734.15 763.021 733.62 761.481 732.57C759.951 731.52 758.911 730.09 758.361 728.28C758.001 727.01 757.821 724.69 757.821 721.32V707.5H754.011V721.74C754.011 725.94 754.491 729.09 755.441 731.19C756.391 733.28 757.831 734.91 759.761 736.08C761.691 737.25 764.101 737.83 766.981 737.83C769.861 737.83 772.261 737.25 774.171 736.08C776.081 734.91 777.511 733.29 778.461 731.23C779.411 729.16 779.891 726.09 779.891 722.02V707.5H776.001V721.31Z" fill="#261B62"/>
<path d="M809.12 708.42C807.41 707.3 805.45 706.73 803.23 706.73C801.06 706.73 799.04 707.23 797.2 708.24C795.35 709.25 793.67 710.76 792.14 712.79V707.49H788.33V737.06H792.14V726.21C792.14 722.31 792.32 719.63 792.68 718.16C793.26 715.91 794.46 714.03 796.28 712.51C798.1 710.99 800.16 710.23 802.47 710.23C804.48 710.23 806.11 710.72 807.36 711.71C808.61 712.7 809.46 714.17 809.9 716.13C810.18 717.27 810.32 719.55 810.32 722.95V737.06H814.13V721.84C814.13 717.82 813.72 714.85 812.91 712.95C812.1 711.05 810.83 709.54 809.12 708.42Z" fill="#261B62"/>
<path d="M848.061 712.93C846.571 710.86 844.851 709.31 842.881 708.28C840.911 707.25 838.721 706.73 836.291 706.73C832.091 706.73 828.491 708.24 825.501 711.27C822.511 714.3 821.011 717.94 821.011 722.2C821.011 726.55 822.491 730.24 825.451 733.28C828.411 736.32 831.991 737.83 836.171 737.83C838.531 737.83 840.701 737.34 842.681 736.36C844.661 735.38 846.451 733.92 848.051 731.98V737.06H851.801V696.07H848.051V712.93H848.061ZM846.801 728.49C845.801 730.28 844.361 731.7 842.501 732.75C840.641 733.8 838.661 734.32 836.581 734.32C834.521 734.32 832.581 733.79 830.781 732.73C828.981 731.67 827.541 730.19 826.481 728.29C825.421 726.39 824.881 724.4 824.881 722.32C824.881 720.22 825.411 718.23 826.471 716.35C827.531 714.47 828.951 713.01 830.751 711.96C832.541 710.92 834.501 710.4 836.611 710.4C839.901 710.4 842.681 711.55 844.931 713.85C847.181 716.15 848.311 719.01 848.311 722.43C848.301 724.68 847.801 726.7 846.801 728.49Z" fill="#261B62"/>
<path d="M863.67 707.5H859.86V737.07H863.67V707.5Z" fill="#261B62"/>
<path d="M861.751 695.32C860.901 695.32 860.171 695.63 859.561 696.24C858.951 696.86 858.641 697.6 858.641 698.47C858.641 699.32 858.951 700.06 859.561 700.67C860.171 701.29 860.901 701.59 861.751 701.59C862.621 701.59 863.361 701.28 863.971 700.67C864.581 700.05 864.891 699.32 864.891 698.47C864.891 697.6 864.581 696.86 863.971 696.24C863.351 695.63 862.611 695.32 861.751 695.32Z" fill="#261B62"/>
<path d="M897.291 712.93C895.801 710.86 894.081 709.31 892.111 708.28C890.141 707.25 887.951 706.73 885.521 706.73C881.321 706.73 877.721 708.24 874.731 711.27C871.741 714.3 870.251 717.94 870.251 722.2C870.251 726.55 871.731 730.24 874.691 733.28C877.651 736.32 881.231 737.83 885.411 737.83C887.771 737.83 889.941 737.34 891.921 736.36C893.901 735.38 895.691 733.92 897.291 731.98V737.06H901.041V707.5H897.291V712.93ZM896.021 728.49C895.021 730.28 893.581 731.7 891.721 732.75C889.861 733.8 887.881 734.32 885.801 734.32C883.741 734.32 881.801 733.79 880.001 732.73C878.201 731.67 876.761 730.19 875.701 728.29C874.641 726.39 874.101 724.4 874.101 722.32C874.101 720.22 874.631 718.23 875.691 716.35C876.751 714.47 878.171 713.01 879.971 711.96C881.761 710.92 883.721 710.4 885.831 710.4C889.121 710.4 891.901 711.55 894.151 713.85C896.401 716.15 897.531 719.01 897.531 722.43C897.531 724.68 897.031 726.7 896.021 728.49Z" fill="#261B62"/>
<path d="M912.84 696.08H909.03V737.07H912.84V696.08Z" fill="#261B62"/>
<path d="M858.141 184.43L851.561 201.62L841.921 185.94L823.531 185L835.461 170.98L830.681 153.2L847.701 160.22L863.131 150.17L861.711 168.53L876.031 180.1L858.141 184.43Z" fill="url(#paint42_linear_2302_3)"/>
<path d="M219.03 271.56L242.66 270.65L229 289.96L237.17 312.17L214.58 305.14L195.99 319.77L195.69 296.12L176.03 282.96L198.44 275.36L204.88 252.6L219.03 271.56Z" fill="url(#paint43_linear_2302_3)"/>
<path d="M86.1107 615.43L105.301 614.11L94.6807 630.14L101.861 647.97L83.3407 642.82L68.6007 655.17L67.7607 635.96L51.4707 625.76L69.4807 619.03L74.1507 600.38L86.1107 615.43Z" fill="url(#paint44_linear_2302_3)"/>
<path d="M230.871 809.73L253.641 814.18L236.251 829.54L239.051 852.57L219.071 840.78L198.031 850.56L203.071 827.91L187.271 810.93L210.361 808.72L221.641 788.44L230.871 809.73Z" fill="url(#paint45_linear_2302_3)"/>
<path d="M357.501 849.02L376.071 852.65L361.891 865.17L364.171 883.95L347.881 874.34L330.721 882.31L334.831 863.85L321.951 849.99L340.781 848.19L349.971 831.66L357.501 849.02Z" fill="url(#paint46_linear_2302_3)"/>
<path d="M1017.59 458.29L1040.8 462.83L1023.07 478.49L1025.92 501.97L1005.55 489.95L984.101 499.92L989.241 476.83L973.131 459.51L996.681 457.26L1008.17 436.58L1017.59 458.29Z" fill="url(#paint47_linear_2302_3)"/>
<path d="M910.671 289.87L929.451 293.55L915.111 306.22L917.411 325.21L900.941 315.49L883.591 323.55L887.741 304.87L874.711 290.86L893.761 289.04L903.061 272.32L910.671 289.87Z" fill="url(#paint48_linear_2302_3)"/>
<path d="M744.821 221.17L768.111 225.34L750.641 241.29L753.871 264.72L733.311 253.03L712.021 263.35L716.781 240.18L700.391 223.12L723.901 220.49L735.051 199.63L744.821 221.17Z" fill="url(#paint49_linear_2302_3)"/>
<path d="M542.78 119.74L563.71 108.73L559.71 132.05L576.65 148.56L553.24 151.96L542.78 173.17L532.31 151.96L508.9 148.56L525.84 132.05L521.84 108.73L542.78 119.74Z" fill="url(#paint50_linear_2302_3)"/>
<path d="M395.481 127.1L416.421 116.09L412.421 139.41L429.361 155.92L405.951 159.32L395.481 180.54L385.011 159.32L361.601 155.92L378.541 139.41L374.541 116.09L395.481 127.1Z" fill="url(#paint51_linear_2302_3)"/>
<defs>
<linearGradient id="paint0_linear_2302_3" x1="621.435" y1="-121.267" x2="217.919" y2="609.81" gradientUnits="userSpaceOnUse">
<stop stop-color="#782B86"/>
<stop offset="0.00399476" stop-color="#762985"/>
<stop offset="0.005618" stop-color="#702283"/>
<stop offset="0.271" stop-color="#772182"/>
<stop offset="0.3371" stop-color="#7A2182"/>
<stop offset="0.5302" stop-color="#5D1F77"/>
<stop offset="0.8396" stop-color="#351C68"/>
<stop offset="1" stop-color="#261B62"/>
</linearGradient>
<linearGradient id="paint1_linear_2302_3" x1="1235.48" y1="217.652" x2="831.959" y2="948.729" gradientUnits="userSpaceOnUse">
<stop stop-color="#782B86"/>
<stop offset="0.00399476" stop-color="#762985"/>
<stop offset="0.005618" stop-color="#702283"/>
<stop offset="0.271" stop-color="#772182"/>
<stop offset="0.3371" stop-color="#7A2182"/>
<stop offset="0.5302" stop-color="#5D1F77"/>
<stop offset="0.8396" stop-color="#351C68"/>
<stop offset="1" stop-color="#261B62"/>
</linearGradient>
<linearGradient id="paint2_linear_2302_3" x1="1284.54" y1="244.735" x2="881.027" y2="975.811" gradientUnits="userSpaceOnUse">
<stop stop-color="#782B86"/>
<stop offset="0.00399476" stop-color="#762985"/>
<stop offset="0.005618" stop-color="#702283"/>
<stop offset="0.271" stop-color="#772182"/>
<stop offset="0.3371" stop-color="#7A2182"/>
<stop offset="0.5302" stop-color="#5D1F77"/>
<stop offset="0.8396" stop-color="#351C68"/>
<stop offset="1" stop-color="#261B62"/>
</linearGradient>
<linearGradient id="paint3_linear_2302_3" x1="457.228" y1="-211.9" x2="53.712" y2="519.176" gradientUnits="userSpaceOnUse">
<stop stop-color="#782B86"/>
<stop offset="0.00399476" stop-color="#762985"/>
<stop offset="0.005618" stop-color="#702283"/>
<stop offset="0.271" stop-color="#772182"/>
<stop offset="0.3371" stop-color="#7A2182"/>
<stop offset="0.5302" stop-color="#5D1F77"/>
<stop offset="0.8396" stop-color="#351C68"/>
<stop offset="1" stop-color="#261B62"/>
</linearGradient>
<linearGradient id="paint4_linear_2302_3" x1="384.407" y1="-252.094" x2="-19.1097" y2="478.983" gradientUnits="userSpaceOnUse">
<stop stop-color="#782B86"/>
<stop offset="0.00399476" stop-color="#762985"/>
<stop offset="0.005618" stop-color="#702283"/>
<stop offset="0.271" stop-color="#772182"/>
<stop offset="0.3371" stop-color="#7A2182"/>
<stop offset="0.5302" stop-color="#5D1F77"/>
<stop offset="0.8396" stop-color="#351C68"/>
<stop offset="1" stop-color="#261B62"/>
</linearGradient>
<linearGradient id="paint5_linear_2302_3" x1="373.323" y1="-258.212" x2="-30.1934" y2="472.865" gradientUnits="userSpaceOnUse">
<stop stop-color="#782B86"/>
<stop offset="0.00399476" stop-color="#762985"/>
<stop offset="0.005618" stop-color="#702283"/>
<stop offset="0.271" stop-color="#772182"/>
<stop offset="0.3371" stop-color="#7A2182"/>
<stop offset="0.5302" stop-color="#5D1F77"/>
<stop offset="0.8396" stop-color="#351C68"/>
<stop offset="1" stop-color="#261B62"/>
</linearGradient>
<linearGradient id="paint6_linear_2302_3" x1="464.769" y1="-207.738" x2="61.2527" y2="523.338" gradientUnits="userSpaceOnUse">
<stop stop-color="#782B86"/>
<stop offset="0.00399476" stop-color="#762985"/>
<stop offset="0.005618" stop-color="#702283"/>
<stop offset="0.271" stop-color="#772182"/>
<stop offset="0.3371" stop-color="#7A2182"/>
<stop offset="0.5302" stop-color="#5D1F77"/>
<stop offset="0.8396" stop-color="#351C68"/>
<stop offset="1" stop-color="#261B62"/>
</linearGradient>
<linearGradient id="paint7_linear_2302_3" x1="532.74" y1="-170.222" x2="129.224" y2="560.855" gradientUnits="userSpaceOnUse">
<stop stop-color="#782B86"/>
<stop offset="0.00399476" stop-color="#762985"/>
<stop offset="0.005618" stop-color="#702283"/>
<stop offset="0.271" stop-color="#772182"/>
<stop offset="0.3371" stop-color="#7A2182"/>
<stop offset="0.5302" stop-color="#5D1F77"/>
<stop offset="0.8396" stop-color="#351C68"/>
<stop offset="1" stop-color="#261B62"/>
</linearGradient>
<linearGradient id="paint8_linear_2302_3" x1="533.571" y1="-169.763" x2="130.054" y2="561.314" gradientUnits="userSpaceOnUse">
<stop stop-color="#782B86"/>
<stop offset="0.00399476" stop-color="#762985"/>
<stop offset="0.005618" stop-color="#702283"/>
<stop offset="0.271" stop-color="#772182"/>
<stop offset="0.3371" stop-color="#7A2182"/>
<stop offset="0.5302" stop-color="#5D1F77"/>
<stop offset="0.8396" stop-color="#351C68"/>
<stop offset="1" stop-color="#261B62"/>
</linearGradient>
<linearGradient id="paint9_linear_2302_3" x1="636.551" y1="-112.923" x2="233.035" y2="618.154" gradientUnits="userSpaceOnUse">
<stop stop-color="#782B86"/>
<stop offset="0.00399476" stop-color="#762985"/>
<stop offset="0.005618" stop-color="#702283"/>
<stop offset="0.271" stop-color="#772182"/>
<stop offset="0.3371" stop-color="#7A2182"/>
<stop offset="0.5302" stop-color="#5D1F77"/>
<stop offset="0.8396" stop-color="#351C68"/>
<stop offset="1" stop-color="#261B62"/>
</linearGradient>
<linearGradient id="paint10_linear_2302_3" x1="748.78" y1="-50.9787" x2="345.264" y2="680.098" gradientUnits="userSpaceOnUse">
<stop stop-color="#782B86"/>
<stop offset="0.00399476" stop-color="#762985"/>
<stop offset="0.005618" stop-color="#702283"/>
<stop offset="0.271" stop-color="#772182"/>
<stop offset="0.3371" stop-color="#7A2182"/>
<stop offset="0.5302" stop-color="#5D1F77"/>
<stop offset="0.8396" stop-color="#351C68"/>
<stop offset="1" stop-color="#261B62"/>
</linearGradient>
<linearGradient id="paint11_linear_2302_3" x1="717.345" y1="-68.3297" x2="313.828" y2="662.747" gradientUnits="userSpaceOnUse">
<stop stop-color="#782B86"/>
<stop offset="0.00399476" stop-color="#762985"/>
<stop offset="0.005618" stop-color="#702283"/>
<stop offset="0.271" stop-color="#772182"/>
<stop offset="0.3371" stop-color="#7A2182"/>
<stop offset="0.5302" stop-color="#5D1F77"/>
<stop offset="0.8396" stop-color="#351C68"/>
<stop offset="1" stop-color="#261B62"/>
</linearGradient>
<linearGradient id="paint12_linear_2302_3" x1="811.79" y1="-16.2007" x2="408.273" y2="714.876" gradientUnits="userSpaceOnUse">
<stop stop-color="#782B86"/>
<stop offset="0.00399476" stop-color="#762985"/>
<stop offset="0.005618" stop-color="#702283"/>
<stop offset="0.271" stop-color="#772182"/>
<stop offset="0.3371" stop-color="#7A2182"/>
<stop offset="0.5302" stop-color="#5D1F77"/>
<stop offset="0.8396" stop-color="#351C68"/>
<stop offset="1" stop-color="#261B62"/>
</linearGradient>
<linearGradient id="paint13_linear_2302_3" x1="977.038" y1="75.0077" x2="573.522" y2="806.085" gradientUnits="userSpaceOnUse">
<stop stop-color="#782B86"/>
<stop offset="0.00399476" stop-color="#762985"/>
<stop offset="0.005618" stop-color="#702283"/>
<stop offset="0.271" stop-color="#772182"/>
<stop offset="0.3371" stop-color="#7A2182"/>
<stop offset="0.5302" stop-color="#5D1F77"/>
<stop offset="0.8396" stop-color="#351C68"/>
<stop offset="1" stop-color="#261B62"/>
</linearGradient>
<linearGradient id="paint14_linear_2302_3" x1="944.039" y1="56.794" x2="540.522" y2="787.871" gradientUnits="userSpaceOnUse">
<stop stop-color="#782B86"/>
<stop offset="0.00399476" stop-color="#762985"/>
<stop offset="0.005618" stop-color="#702283"/>
<stop offset="0.271" stop-color="#772182"/>
<stop offset="0.3371" stop-color="#7A2182"/>
<stop offset="0.5302" stop-color="#5D1F77"/>
<stop offset="0.8396" stop-color="#351C68"/>
<stop offset="1" stop-color="#261B62"/>
</linearGradient>
<linearGradient id="paint15_linear_2302_3" x1="884.675" y1="24.0272" x2="481.158" y2="755.105" gradientUnits="userSpaceOnUse">
<stop stop-color="#782B86"/>
<stop offset="0.00399476" stop-color="#762985"/>
<stop offset="0.005618" stop-color="#702283"/>
<stop offset="0.271" stop-color="#772182"/>
<stop offset="0.3371" stop-color="#7A2182"/>
<stop offset="0.5302" stop-color="#5D1F77"/>
<stop offset="0.8396" stop-color="#351C68"/>
<stop offset="1" stop-color="#261B62"/>
</linearGradient>
<linearGradient id="paint16_linear_2302_3" x1="839.035" y1="-1.16285" x2="435.519" y2="729.914" gradientUnits="userSpaceOnUse">
<stop stop-color="#782B86"/>
<stop offset="0.00399476" stop-color="#762985"/>
<stop offset="0.005618" stop-color="#702283"/>
<stop offset="0.271" stop-color="#772182"/>
<stop offset="0.3371" stop-color="#7A2182"/>
<stop offset="0.5302" stop-color="#5D1F77"/>
<stop offset="0.8396" stop-color="#351C68"/>
<stop offset="1" stop-color="#261B62"/>
</linearGradient>
<linearGradient id="paint17_linear_2302_3" x1="620.909" y1="-121.557" x2="217.392" y2="609.52" gradientUnits="userSpaceOnUse">
<stop stop-color="#782B86"/>
<stop offset="0.00399476" stop-color="#762985"/>
<stop offset="0.005618" stop-color="#702283"/>
<stop offset="0.271" stop-color="#772182"/>
<stop offset="0.3371" stop-color="#7A2182"/>
<stop offset="0.5302" stop-color="#5D1F77"/>
<stop offset="0.8396" stop-color="#351C68"/>
<stop offset="1" stop-color="#261B62"/>
</linearGradient>
<linearGradient id="paint18_linear_2302_3" x1="541.885" y1="-165.174" x2="138.368" y2="565.903" gradientUnits="userSpaceOnUse">
<stop stop-color="#782B86"/>
<stop offset="0.00399476" stop-color="#762985"/>
<stop offset="0.005618" stop-color="#702283"/>
<stop offset="0.271" stop-color="#772182"/>
<stop offset="0.3371" stop-color="#7A2182"/>
<stop offset="0.5302" stop-color="#5D1F77"/>
<stop offset="0.8396" stop-color="#351C68"/>
<stop offset="1" stop-color="#261B62"/>
</linearGradient>
<linearGradient id="paint19_linear_2302_3" x1="475.742" y1="-201.682" x2="72.2257" y2="529.395" gradientUnits="userSpaceOnUse">
<stop stop-color="#782B86"/>
<stop offset="0.00399476" stop-color="#762985"/>
<stop offset="0.005618" stop-color="#702283"/>
<stop offset="0.271" stop-color="#772182"/>
<stop offset="0.3371" stop-color="#7A2182"/>
<stop offset="0.5302" stop-color="#5D1F77"/>
<stop offset="0.8396" stop-color="#351C68"/>
<stop offset="1" stop-color="#261B62"/>
</linearGradient>
<linearGradient id="paint20_linear_2302_3" x1="408.228" y1="-238.946" x2="4.71173" y2="492.131" gradientUnits="userSpaceOnUse">
<stop stop-color="#782B86"/>
<stop offset="0.00399476" stop-color="#762985"/>
<stop offset="0.005618" stop-color="#702283"/>
<stop offset="0.271" stop-color="#772182"/>
<stop offset="0.3371" stop-color="#7A2182"/>
<stop offset="0.5302" stop-color="#5D1F77"/>
<stop offset="0.8396" stop-color="#351C68"/>
<stop offset="1" stop-color="#261B62"/>
</linearGradient>
<linearGradient id="paint21_linear_2302_3" x1="1216.87" y1="207.383" x2="813.353" y2="938.459" gradientUnits="userSpaceOnUse">
<stop stop-color="#782B86"/>
<stop offset="0.00399476" stop-color="#762985"/>
<stop offset="0.005618" stop-color="#702283"/>
<stop offset="0.271" stop-color="#772182"/>
<stop offset="0.3371" stop-color="#7A2182"/>
<stop offset="0.5302" stop-color="#5D1F77"/>
<stop offset="0.8396" stop-color="#351C68"/>
<stop offset="1" stop-color="#261B62"/>
</linearGradient>
<linearGradient id="paint22_linear_2302_3" x1="1272.7" y1="238.197" x2="869.183" y2="969.274" gradientUnits="userSpaceOnUse">
<stop stop-color="#782B86"/>
<stop offset="0.00399476" stop-color="#762985"/>
<stop offset="0.005618" stop-color="#702283"/>
<stop offset="0.271" stop-color="#772182"/>
<stop offset="0.3371" stop-color="#7A2182"/>
<stop offset="0.5302" stop-color="#5D1F77"/>
<stop offset="0.8396" stop-color="#351C68"/>
<stop offset="1" stop-color="#261B62"/>
</linearGradient>
<linearGradient id="paint23_linear_2302_3" x1="455.852" y1="-212.66" x2="52.3351" y2="518.416" gradientUnits="userSpaceOnUse">
<stop stop-color="#782B86"/>
<stop offset="0.00399476" stop-color="#762985"/>
<stop offset="0.005618" stop-color="#702283"/>
<stop offset="0.271" stop-color="#772182"/>
<stop offset="0.3371" stop-color="#7A2182"/>
<stop offset="0.5302" stop-color="#5D1F77"/>
<stop offset="0.8396" stop-color="#351C68"/>
<stop offset="1" stop-color="#261B62"/>
</linearGradient>
<linearGradient id="paint24_linear_2302_3" x1="415.291" y1="-235.047" x2="11.7749" y2="496.03" gradientUnits="userSpaceOnUse">
<stop stop-color="#782B86"/>
<stop offset="0.00399476" stop-color="#762985"/>
<stop offset="0.005618" stop-color="#702283"/>
<stop offset="0.271" stop-color="#772182"/>
<stop offset="0.3371" stop-color="#7A2182"/>
<stop offset="0.5302" stop-color="#5D1F77"/>
<stop offset="0.8396" stop-color="#351C68"/>
<stop offset="1" stop-color="#261B62"/>
</linearGradient>
<linearGradient id="paint25_linear_2302_3" x1="403.881" y1="-241.345" x2="0.364282" y2="489.732" gradientUnits="userSpaceOnUse">
<stop stop-color="#782B86"/>
<stop offset="0.00399476" stop-color="#762985"/>
<stop offset="0.005618" stop-color="#702283"/>
<stop offset="0.271" stop-color="#772182"/>
<stop offset="0.3371" stop-color="#7A2182"/>
<stop offset="0.5302" stop-color="#5D1F77"/>
<stop offset="0.8396" stop-color="#351C68"/>
<stop offset="1" stop-color="#261B62"/>
</linearGradient>
<linearGradient id="paint26_linear_2302_3" x1="451.116" y1="-215.274" x2="47.5997" y2="515.803" gradientUnits="userSpaceOnUse">
<stop stop-color="#782B86"/>
<stop offset="0.00399476" stop-color="#762985"/>
<stop offset="0.005618" stop-color="#702283"/>
<stop offset="0.271" stop-color="#772182"/>
<stop offset="0.3371" stop-color="#7A2182"/>
<stop offset="0.5302" stop-color="#5D1F77"/>
<stop offset="0.8396" stop-color="#351C68"/>
<stop offset="1" stop-color="#261B62"/>
</linearGradient>
<linearGradient id="paint27_linear_2302_3" x1="398.64" y1="-244.238" x2="-4.87647" y2="486.839" gradientUnits="userSpaceOnUse">
<stop stop-color="#782B86"/>
<stop offset="0.00399476" stop-color="#762985"/>
<stop offset="0.005618" stop-color="#702283"/>
<stop offset="0.271" stop-color="#772182"/>
<stop offset="0.3371" stop-color="#7A2182"/>
<stop offset="0.5302" stop-color="#5D1F77"/>
<stop offset="0.8396" stop-color="#351C68"/>
<stop offset="1" stop-color="#261B62"/>
</linearGradient>
<linearGradient id="paint28_linear_2302_3" x1="800.937" y1="-22.1911" x2="397.421" y2="708.886" gradientUnits="userSpaceOnUse">
<stop stop-color="#782B86"/>
<stop offset="0.00399476" stop-color="#762985"/>
<stop offset="0.005618" stop-color="#702283"/>
<stop offset="0.271" stop-color="#772182"/>
<stop offset="0.3371" stop-color="#7A2182"/>
<stop offset="0.5302" stop-color="#5D1F77"/>
<stop offset="0.8396" stop-color="#351C68"/>
<stop offset="1" stop-color="#261B62"/>
</linearGradient>
<linearGradient id="paint29_linear_2302_3" x1="854.101" y1="7.15628" x2="450.584" y2="738.233" gradientUnits="userSpaceOnUse">
<stop stop-color="#782B86"/>
<stop offset="0.00399476" stop-color="#762985"/>
<stop offset="0.005618" stop-color="#702283"/>
<stop offset="0.271" stop-color="#772182"/>
<stop offset="0.3371" stop-color="#7A2182"/>
<stop offset="0.5302" stop-color="#5D1F77"/>
<stop offset="0.8396" stop-color="#351C68"/>
<stop offset="1" stop-color="#261B62"/>
</linearGradient>
<linearGradient id="paint30_linear_2302_3" x1="946.722" y1="58.2751" x2="543.206" y2="789.352" gradientUnits="userSpaceOnUse">
<stop stop-color="#782B86"/>
<stop offset="0.00399476" stop-color="#762985"/>
<stop offset="0.005618" stop-color="#702283"/>
<stop offset="0.271" stop-color="#772182"/>
<stop offset="0.3371" stop-color="#7A2182"/>
<stop offset="0.5302" stop-color="#5D1F77"/>
<stop offset="0.8396" stop-color="#351C68"/>
<stop offset="1" stop-color="#261B62"/>
</linearGradient>
<linearGradient id="paint31_linear_2302_3" x1="1011.39" y1="93.9662" x2="607.87" y2="825.043" gradientUnits="userSpaceOnUse">
<stop stop-color="#782B86"/>
<stop offset="0.00399476" stop-color="#762985"/>
<stop offset="0.005618" stop-color="#702283"/>
<stop offset="0.271" stop-color="#772182"/>
<stop offset="0.3371" stop-color="#7A2182"/>
<stop offset="0.5302" stop-color="#5D1F77"/>
<stop offset="0.8396" stop-color="#351C68"/>
<stop offset="1" stop-color="#261B62"/>
</linearGradient>
<linearGradient id="paint32_linear_2302_3" x1="1075.24" y1="129.209" x2="671.721" y2="860.286" gradientUnits="userSpaceOnUse">
<stop stop-color="#782B86"/>
<stop offset="0.00399476" stop-color="#762985"/>
<stop offset="0.005618" stop-color="#702283"/>
<stop offset="0.271" stop-color="#772182"/>
<stop offset="0.3371" stop-color="#7A2182"/>
<stop offset="0.5302" stop-color="#5D1F77"/>
<stop offset="0.8396" stop-color="#351C68"/>
<stop offset="1" stop-color="#261B62"/>
</linearGradient>
<linearGradient id="paint33_linear_2302_3" x1="1151.47" y1="171.287" x2="747.956" y2="902.364" gradientUnits="userSpaceOnUse">
<stop stop-color="#782B86"/>
<stop offset="0.00399476" stop-color="#762985"/>
<stop offset="0.005618" stop-color="#702283"/>
<stop offset="0.271" stop-color="#772182"/>
<stop offset="0.3371" stop-color="#7A2182"/>
<stop offset="0.5302" stop-color="#5D1F77"/>
<stop offset="0.8396" stop-color="#351C68"/>
<stop offset="1" stop-color="#261B62"/>
</linearGradient>
<linearGradient id="paint34_linear_2302_3" x1="1089.93" y1="137.32" x2="686.417" y2="868.397" gradientUnits="userSpaceOnUse">
<stop stop-color="#782B86"/>
<stop offset="0.00399476" stop-color="#762985"/>
<stop offset="0.005618" stop-color="#702283"/>
<stop offset="0.271" stop-color="#772182"/>
<stop offset="0.3371" stop-color="#7A2182"/>
<stop offset="0.5302" stop-color="#5D1F77"/>
<stop offset="0.8396" stop-color="#351C68"/>
<stop offset="1" stop-color="#261B62"/>
</linearGradient>
<linearGradient id="paint35_linear_2302_3" x1="1235.24" y1="217.524" x2="831.728" y2="948.601" gradientUnits="userSpaceOnUse">
<stop stop-color="#782B86"/>
<stop offset="0.00399476" stop-color="#762985"/>
<stop offset="0.005618" stop-color="#702283"/>
<stop offset="0.271" stop-color="#772182"/>
<stop offset="0.3371" stop-color="#7A2182"/>
<stop offset="0.5302" stop-color="#5D1F77"/>
<stop offset="0.8396" stop-color="#351C68"/>
<stop offset="1" stop-color="#261B62"/>
</linearGradient>
<linearGradient id="paint36_linear_2302_3" x1="749.052" y1="-50.8283" x2="345.536" y2="680.249" gradientUnits="userSpaceOnUse">
<stop stop-color="#782B86"/>
<stop offset="0.00399476" stop-color="#762985"/>
<stop offset="0.005618" stop-color="#702283"/>
<stop offset="0.271" stop-color="#772182"/>
<stop offset="0.3371" stop-color="#7A2182"/>
<stop offset="0.5302" stop-color="#5D1F77"/>
<stop offset="0.8396" stop-color="#351C68"/>
<stop offset="1" stop-color="#261B62"/>
</linearGradient>
<linearGradient id="paint37_linear_2302_3" x1="681.585" y1="-88.0675" x2="278.068" y2="643.01" gradientUnits="userSpaceOnUse">
<stop stop-color="#782B86"/>
<stop offset="0.00399476" stop-color="#762985"/>
<stop offset="0.005618" stop-color="#702283"/>
<stop offset="0.271" stop-color="#772182"/>
<stop offset="0.3371" stop-color="#7A2182"/>
<stop offset="0.5302" stop-color="#5D1F77"/>
<stop offset="0.8396" stop-color="#351C68"/>
<stop offset="1" stop-color="#261B62"/>
</linearGradient>
<linearGradient id="paint38_linear_2302_3" x1="603.132" y1="-131.369" x2="199.616" y2="599.708" gradientUnits="userSpaceOnUse">
<stop stop-color="#782B86"/>
<stop offset="0.00399476" stop-color="#762985"/>
<stop offset="0.005618" stop-color="#702283"/>
<stop offset="0.271" stop-color="#772182"/>
<stop offset="0.3371" stop-color="#7A2182"/>
<stop offset="0.5302" stop-color="#5D1F77"/>
<stop offset="0.8396" stop-color="#351C68"/>
<stop offset="1" stop-color="#261B62"/>
</linearGradient>
<linearGradient id="paint39_linear_2302_3" x1="457.309" y1="-211.856" x2="53.7924" y2="519.221" gradientUnits="userSpaceOnUse">
<stop stop-color="#782B86"/>
<stop offset="0.00399476" stop-color="#762985"/>
<stop offset="0.005618" stop-color="#702283"/>
<stop offset="0.271" stop-color="#772182"/>
<stop offset="0.3371" stop-color="#7A2182"/>
<stop offset="0.5302" stop-color="#5D1F77"/>
<stop offset="0.8396" stop-color="#351C68"/>
<stop offset="1" stop-color="#261B62"/>
</linearGradient>
<linearGradient id="paint40_linear_2302_3" x1="775.576" y1="-36.1889" x2="372.06" y2="694.888" gradientUnits="userSpaceOnUse">
<stop stop-color="#782B86"/>
<stop offset="0.00399476" stop-color="#762985"/>
<stop offset="0.005618" stop-color="#702283"/>
<stop offset="0.271" stop-color="#772182"/>
<stop offset="0.3371" stop-color="#7A2182"/>
<stop offset="0.5302" stop-color="#5D1F77"/>
<stop offset="0.8396" stop-color="#351C68"/>
<stop offset="1" stop-color="#261B62"/>
</linearGradient>
<linearGradient id="paint41_linear_2302_3" x1="892.887" y1="28.5607" x2="489.37" y2="759.638" gradientUnits="userSpaceOnUse">
<stop stop-color="#782B86"/>
<stop offset="0.00399476" stop-color="#762985"/>
<stop offset="0.005618" stop-color="#702283"/>
<stop offset="0.271" stop-color="#772182"/>
<stop offset="0.3371" stop-color="#7A2182"/>
<stop offset="0.5302" stop-color="#5D1F77"/>
<stop offset="0.8396" stop-color="#351C68"/>
<stop offset="1" stop-color="#261B62"/>
</linearGradient>
<linearGradient id="paint42_linear_2302_3" x1="865.938" y1="190.194" x2="829.811" y2="154.068" gradientUnits="userSpaceOnUse">
<stop stop-color="#FCCB00"/>
<stop offset="0.5955" stop-color="#C9961A"/>
<stop offset="0.9168" stop-color="#E9CD76"/>
<stop offset="1" stop-color="#F2DC8E"/>
</linearGradient>
<linearGradient id="paint43_linear_2302_3" x1="236.727" y1="312.61" x2="190.797" y2="266.681" gradientUnits="userSpaceOnUse">
<stop stop-color="#FCCB00"/>
<stop offset="0.5955" stop-color="#C9961A"/>
<stop offset="0.9168" stop-color="#E9CD76"/>
<stop offset="1" stop-color="#F2DC8E"/>
</linearGradient>
<linearGradient id="paint44_linear_2302_3" x1="101.071" y1="648.762" x2="63.4181" y2="611.109" gradientUnits="userSpaceOnUse">
<stop stop-color="#FCCB00"/>
<stop offset="0.5955" stop-color="#C9961A"/>
<stop offset="0.9168" stop-color="#E9CD76"/>
<stop offset="1" stop-color="#F2DC8E"/>
</linearGradient>
<linearGradient id="paint45_linear_2302_3" x1="242.542" y1="849.08" x2="195.828" y2="802.366" gradientUnits="userSpaceOnUse">
<stop stop-color="#FCCB00"/>
<stop offset="0.5955" stop-color="#C9961A"/>
<stop offset="0.9168" stop-color="#E9CD76"/>
<stop offset="1" stop-color="#F2DC8E"/>
</linearGradient>
<linearGradient id="paint46_linear_2302_3" x1="367.018" y1="881.104" x2="328.929" y2="843.014" gradientUnits="userSpaceOnUse">
<stop stop-color="#FCCB00"/>
<stop offset="0.5955" stop-color="#C9961A"/>
<stop offset="0.9168" stop-color="#E9CD76"/>
<stop offset="1" stop-color="#F2DC8E"/>
</linearGradient>
<linearGradient id="paint47_linear_2302_3" x1="1029.49" y1="498.412" x2="981.856" y2="450.78" gradientUnits="userSpaceOnUse">
<stop stop-color="#FCCB00"/>
<stop offset="0.5955" stop-color="#C9961A"/>
<stop offset="0.9168" stop-color="#E9CD76"/>
<stop offset="1" stop-color="#F2DC8E"/>
</linearGradient>
<linearGradient id="paint48_linear_2302_3" x1="920.297" y1="322.327" x2="881.773" y2="283.802" gradientUnits="userSpaceOnUse">
<stop stop-color="#FCCB00"/>
<stop offset="0.5955" stop-color="#C9961A"/>
<stop offset="0.9168" stop-color="#E9CD76"/>
<stop offset="1" stop-color="#F2DC8E"/>
</linearGradient>
<linearGradient id="paint49_linear_2302_3" x1="757.158" y1="261.438" x2="709.617" y2="213.897" gradientUnits="userSpaceOnUse">
<stop stop-color="#FCCB00"/>
<stop offset="0.5955" stop-color="#C9961A"/>
<stop offset="0.9168" stop-color="#E9CD76"/>
<stop offset="1" stop-color="#F2DC8E"/>
</linearGradient>
<linearGradient id="paint50_linear_2302_3" x1="566.437" y1="158.774" x2="519.115" y2="111.453" gradientUnits="userSpaceOnUse">
<stop stop-color="#FCCB00"/>
<stop offset="0.5955" stop-color="#C9961A"/>
<stop offset="0.9168" stop-color="#E9CD76"/>
<stop offset="1" stop-color="#F2DC8E"/>
</linearGradient>
<linearGradient id="paint51_linear_2302_3" x1="419.144" y1="166.139" x2="371.822" y2="118.817" gradientUnits="userSpaceOnUse">
<stop stop-color="#FCCB00"/>
<stop offset="0.5955" stop-color="#C9961A"/>
<stop offset="0.9168" stop-color="#E9CD76"/>
<stop offset="1" stop-color="#F2DC8E"/>
</linearGradient>
</defs>
</svg>
