<?xml version="1.0" encoding="utf-8"?>
<!-- Generator: Adobe Illustrator 24.1.2, SVG Export Plug-In . SVG Version: 6.00 Build 0)  -->
<svg version="1.1" id="Capa_1" xmlns="http://www.w3.org/2000/svg" xmlns:xlink="http://www.w3.org/1999/xlink" x="0px" y="0px"
	 viewBox="0 0 3034 796.6" style="enable-background:new 0 0 3034 796.6;" xml:space="preserve">
<style type="text/css">
	.st0{fill:#1CA449;}
</style>
<g id="logotipo">
	<g id="IMPULSE">
		<path class="st0" d="M146.4,444.9V198.2h40.5v246.7H146.4z"/>
		<path class="st0" d="M229.2,444.9V198.2l219.2,187.1L669,198.2v246.7h-40.2V284.2L448.7,437.1L269.4,284.2v160.7H229.2z"/>
		<path class="st0" d="M711.3,301.8H1076c4.7,0,9.3-0.9,13.6-2.6c4.2-1.6,8-4,11.3-7c3.2-2.9,5.7-6.5,7.6-10.4
			c3.8-8,3.8-17.3,0-25.4c-1.8-3.9-4.4-7.5-7.6-10.4c-3.3-3-7.1-5.3-11.3-6.9c-4.3-1.6-8.9-2.5-13.6-2.5H711.3v-38.4h364.4
			c19.3-0.1,37.9,7,52.2,19.9c6.9,6.3,12.4,13.9,16.2,22.4c4,8.8,6.1,18.5,6,28.2c0.2,19.4-7.7,37.9-21.8,51.1
			c-14.3,13.2-33.1,20.5-52.5,20.4H751.4v104h-40.2V301.8z"/>
		<path class="st0" d="M1181.7,198.2h40.2v181.1c0,3.5,0.8,7,2.3,10.2c1.5,3.3,3.7,6.2,6.3,8.6c2.7,2.5,5.8,4.5,9.2,6
			c3.4,1.5,7,2.3,10.8,2.3h301.6c8.2,0,15-2.7,20.4-8.1c5.2-4.9,8.1-11.8,8.1-19V198.2h40.2v181.1c0.1,8.9-1.9,17.7-5.6,25.7
			c-3.6,7.8-8.8,14.9-15.1,20.8c-6.4,5.9-13.9,10.7-22,13.9c-8.2,3.4-17,5.1-25.9,5.1h-301.7c-8.8,0-17.6-1.7-25.7-5.1
			c-8.1-3.3-15.5-8-21.8-13.9c-6.4-5.9-11.6-13-15.3-20.8c-3.9-8-5.9-16.8-5.8-25.7L1181.7,198.2z"/>
		<path class="st0" d="M1703.2,406.5V198.6l-40.2-0.4v246.7h275.3v-38.4H1703.2z"/>
		<path class="st0" d="M2027.2,246.7c3.1-3,6.9-5.3,10.9-6.9c4.3-1.7,8.8-2.5,13.4-2.5h364.4v-38.4l-364.4-0.4
			c-13.5,0.1-26.7,3.7-38.4,10.4c-5.8,3.4-11.2,7.5-16,12.2c-4.7,4.6-8.6,9.9-11.5,15.8c-6.5,10.2-9.6,22.1-9,34.2
			c0.5,12,4,23.6,10.2,33.8c6.4,10.6,15.3,19.5,25.9,25.9c11,6.9,23.6,10.4,37.7,10.4h291.1c8.8-0.1,17.3,3.2,23.6,9.3
			c6.5,5.9,10.1,14.3,9.9,23.1c0,4.4-0.9,8.7-2.6,12.7c-1.7,3.9-4.2,7.4-7.2,10.4c-3.2,3-6.9,5.4-10.9,7c-4.2,1.8-8.8,2.7-13.4,2.6
			h-363.4v38.4h363.4c14.8,0,28.1-3.5,39.8-10.5c11.3-6.6,20.6-16.2,26.8-27.8c6-11,8.7-23.5,7.9-36c-0.7-11.8-4.3-23.3-10.6-33.4
			c-6.4-10.2-15.3-18.6-25.7-24.6c-10.9-6.4-23.4-9.7-37.5-9.7h-290c-4.6,0-9.1-0.9-13.4-2.6c-4.1-1.7-7.8-4.1-10.9-7.1
			c-3.1-3-5.5-6.5-7.2-10.5c-3.5-8.1-3.5-17.4,0-25.5C2021.6,253.2,2024.1,249.7,2027.2,246.7z"/>
		<path class="st0" d="M2880.2,197.9v38.4h-439.8v-38.8L2880.2,197.9z M2881.1,302.2v38h-440.7v-38L2881.1,302.2z M2440.4,406.2
			h439.8v38.8h-439.8V406.2z"/>
	</g>
</g>
</svg>
